<svg width="21" height="13" viewBox="0 0 21 13" fill="none" xmlns="http://www.w3.org/2000/svg">
<path fill-rule="evenodd" clip-rule="evenodd" d="M1.58814 0C1.31612 0 1.05525 0.114137 0.862904 0.317301C0.670559 0.520466 0.5625 0.796016 0.5625 1.08333C0.5625 1.37065 0.670559 1.6462 0.862904 1.84937C1.05525 2.05253 1.31612 2.16667 1.58814 2.16667H19.5369C19.8089 2.16667 20.0698 2.05253 20.2621 1.84937C20.4544 1.6462 20.5625 1.37065 20.5625 1.08333C20.5625 0.796016 20.4544 0.520466 20.2621 0.317301C20.0698 0.114137 19.8089 1.21095e-08 19.5369 0H1.58814ZM1.58814 5.41667C1.45345 5.41667 1.32008 5.44469 1.19565 5.49913C1.07121 5.55357 0.958143 5.63337 0.862904 5.73397C0.767664 5.83456 0.692116 5.95399 0.640573 6.08543C0.58903 6.21686 0.5625 6.35773 0.5625 6.5C0.5625 6.64227 0.58903 6.78314 0.640573 6.91457C0.692116 7.04601 0.767664 7.16543 0.862904 7.26603C0.958143 7.36663 1.07121 7.44643 1.19565 7.50087C1.32008 7.55531 1.45345 7.58333 1.58814 7.58333H19.5369C19.8089 7.58333 20.0698 7.4692 20.2621 7.26603C20.4544 7.06287 20.5625 6.78732 20.5625 6.5C20.5625 6.21268 20.4544 5.93713 20.2621 5.73397C20.0698 5.5308 19.8089 5.41667 19.5369 5.41667H1.58814ZM0.5625 11.9167C0.5625 11.3208 1.02404 10.8333 1.58814 10.8333H19.5369C19.8089 10.8333 20.0698 10.9475 20.2621 11.1506C20.4544 11.3538 20.5625 11.6293 20.5625 11.9167C20.5625 12.204 20.4544 12.4795 20.2621 12.6827C20.0698 12.8859 19.8089 13 19.5369 13H1.58814C1.45345 13 1.32008 12.972 1.19565 12.9175C1.07121 12.8631 0.958143 12.7833 0.862904 12.6827C0.767664 12.5821 0.692116 12.4627 0.640573 12.3312C0.58903 12.1998 0.5625 12.0589 0.5625 11.9167Z" fill="white"/>
</svg>
