<svg width="25" height="25" viewBox="0 0 25 25" fill="none" xmlns="http://www.w3.org/2000/svg">
<path d="M15.4062 22.1875V16.375C15.4062 16.1181 15.3042 15.8717 15.1225 15.69C14.9408 15.5083 14.6944 15.4062 14.4375 15.4062H10.5625C10.3056 15.4062 10.0592 15.5083 9.87749 15.69C9.69581 15.8717 9.59375 16.1181 9.59375 16.375V22.1875C9.59375 22.4444 9.49169 22.6908 9.31001 22.8725C9.12833 23.0542 8.88193 23.1562 8.625 23.1562H2.8125C2.55557 23.1562 2.30917 23.0542 2.12749 22.8725C1.94581 22.6908 1.84375 22.4444 1.84375 22.1875V10.9863C1.84592 10.8522 1.87489 10.72 1.92896 10.5973C1.98303 10.4746 2.06111 10.3639 2.15859 10.2719L11.8461 1.46834C12.0247 1.30496 12.258 1.21436 12.5 1.21436C12.742 1.21436 12.9753 1.30496 13.1539 1.46834L22.8414 10.2719C22.9389 10.3639 23.017 10.4746 23.071 10.5973C23.1251 10.72 23.1541 10.8522 23.1562 10.9863V22.1875C23.1562 22.4444 23.0542 22.6908 22.8725 22.8725C22.6908 23.0542 22.4444 23.1562 22.1875 23.1562H16.375C16.1181 23.1562 15.8717 23.0542 15.69 22.8725C15.5083 22.6908 15.4062 22.4444 15.4062 22.1875Z" stroke="white" stroke-width="2" stroke-linecap="round" stroke-linejoin="round"/>
</svg>
