<svg width="32" height="32" viewBox="0 0 32 32" fill="none" xmlns="http://www.w3.org/2000/svg">
<path d="M20.8105 18.9062C25.0908 18.9062 28.5605 15.4365 28.5605 11.1562C28.5605 6.87604 25.0908 3.40625 20.8105 3.40625C16.5303 3.40625 13.0605 6.87604 13.0605 11.1562C13.0605 15.4365 16.5303 18.9062 20.8105 18.9062Z" stroke="white" stroke-width="2" stroke-linecap="round" stroke-linejoin="round"/>
<path d="M26.296 16.6415L15.325 5.67041" stroke="white" stroke-width="2" stroke-linecap="round" stroke-linejoin="round"/>
<path d="M12.5762 19.3906L11.123 20.8438" stroke="white" stroke-width="2" stroke-linecap="round" stroke-linejoin="round"/>
<path d="M13.1574 12.355L3.86951 25.0214C3.72989 25.2072 3.66273 25.4376 3.68055 25.6693C3.69838 25.9011 3.79999 26.1184 3.96638 26.2808L5.68592 28.0003C5.84823 28.1667 6.06558 28.2683 6.29734 28.2861C6.52911 28.304 6.75944 28.2368 6.94529 28.0972L19.6117 18.8093" stroke="white" stroke-width="2" stroke-linecap="round" stroke-linejoin="round"/>
</svg>
