<svg width="25" height="25" viewBox="0 0 25 25" fill="none" xmlns="http://www.w3.org/2000/svg">
<path d="M2.43338 13.9851C4.34969 11.2265 5.4769 9.44917 6.29874 8.13574C3.14038 8.41511 0.113037 12.3454 0.113037 12.3454L2.19772 14.4302C2.25821 14.2761 2.33545 14.1264 2.43338 13.9851Z" fill="white"/>
<path d="M10.5723 22.8071L12.6556 24.8905C12.6556 24.8905 16.5854 21.8632 16.8648 18.7046C15.5519 19.5262 13.7753 20.6531 11.016 22.5701C10.8764 22.667 10.7276 22.7461 10.5723 22.8071Z" fill="white"/>
<path d="M7.40384 21.7297C7.04622 21.8742 6.69474 22.0278 6.32831 22.1503C5.34957 22.4774 4.34156 22.6985 3.31956 22.8395C2.89117 22.8987 2.45882 22.9488 2.02574 22.9817C2.02987 22.9282 2.03383 22.8746 2.03836 22.8213C2.12773 21.7798 2.28616 20.7438 2.54212 19.7297C2.66546 19.2403 2.82284 18.7646 2.99178 18.2895C3.09684 17.9941 3.22793 17.7114 3.36016 17.4288L3.13096 17.1997C2.62122 17.5422 2.17787 17.9749 1.80164 18.4644C1.24467 19.1894 0.827197 20.0106 0.535323 20.8761C0.221776 21.8053 0.0347962 22.7895 0.00568172 23.7706C0.00155716 23.9084 -0.00790506 24.0492 0.0134456 24.186C0.0409426 24.3626 0.118501 24.5298 0.235039 24.6653C0.350365 24.7993 0.502165 24.9005 0.670382 24.9547C0.811588 25.0003 0.953602 25.0011 1.10006 25C1.99065 24.9925 2.89506 24.8378 3.74755 24.5845C5.30671 24.1212 6.88075 23.2496 7.80336 21.8724L7.58031 21.6495C7.52184 21.677 7.46321 21.7039 7.40384 21.7297Z" fill="white"/>
<path d="M24.7472 0.253239C24.7472 0.253239 24.747 0.253158 24.7469 0.252996C24.5846 0.0908294 24.3647 0 24.1359 0C24.1302 0 24.1245 8.08811e-05 24.1188 0.000161762C21.3359 0.0547565 14.47 0.575307 10.8237 4.22207C9.16849 5.87746 8.63052 6.73917 7.45138 8.62758C6.60221 9.98719 5.43965 11.8495 3.31493 14.9079C3.07628 15.2517 3.11776 15.717 3.41368 16.0127L8.98814 21.5878C9.15539 21.7551 9.3769 21.8412 9.59987 21.8412C9.77124 21.8412 9.94342 21.7904 10.0929 21.6866C13.1522 19.5612 15.0136 18.3988 16.3726 17.5499C18.2606 16.3707 19.1224 15.8325 20.778 14.177C24.4307 10.5238 24.9476 3.66173 25 0.880956C25.0046 0.646159 24.9132 0.41953 24.7472 0.253239ZM18.2921 10.7724C17.1698 11.8947 15.3505 11.8947 14.2282 10.7724C13.1057 9.65 13.1059 7.83058 14.2284 6.70827C15.3505 5.58589 17.1698 5.58573 18.2921 6.70803C19.4141 7.83034 19.4142 9.65016 18.2921 10.7724Z" fill="white"/>
</svg>
